<?xml version="1.0" encoding="UTF-8"?>
<!DOCTYPE svg PUBLIC "-//W3C//DTD SVG 1.1//EN" "http://www.w3.org/Graphics/SVG/1.1/DTD/svg11.dtd">
<!-- Creator: CorelDRAW 2018 (64-Bit) -->
<svg xmlns="http://www.w3.org/2000/svg" xml:space="preserve" width="8.0536mm" height="8.072mm" version="1.1" style="shape-rendering:geometricPrecision; text-rendering:geometricPrecision; image-rendering:optimizeQuality; fill-rule:evenodd; clip-rule:evenodd"
viewBox="0 0 66 66.15"
 xmlns:xlink="http://www.w3.org/1999/xlink">
 <defs>
  <style type="text/css">
   <![CDATA[
    .fil0 {fill:#E6E6E6}
   ]]>
  </style>
 </defs>
 <g id="Слой_x0020_1">
  <metadata id="CorelCorpID_0Corel-Layer"/>
  <path class="fil0" d="M32.93 0c-17.25,0 -31.4,13.21 -32.93,30.07l26.91 0 0 -9.02c0,-1.21 0.73,-2.31 1.86,-2.78 1.12,-0.47 2.42,-0.21 3.28,0.65l12.03 12.03c1.18,1.18 1.18,3.08 0,4.25l-12.03 12.03c-0.86,0.86 -2.15,1.12 -3.28,0.65 -1.12,-0.47 -1.86,-1.56 -1.86,-2.78l0 -9.02 -26.91 0c1.52,16.86 15.67,30.07 32.93,30.07 18.27,0 33.08,-14.81 33.08,-33.08 0,-18.27 -14.81,-33.08 -33.08,-33.08l0 0zm0 0z"/>
 </g>
</svg>
