<?xml version="1.0" encoding="UTF-8"?>
<!DOCTYPE svg PUBLIC "-//W3C//DTD SVG 1.1//EN" "http://www.w3.org/Graphics/SVG/1.1/DTD/svg11.dtd">
<!-- Creator: CorelDRAW 2018 (64-Bit) -->
<svg xmlns="http://www.w3.org/2000/svg" xml:space="preserve" width="8.0536mm" height="8.072mm" version="1.1" style="shape-rendering:geometricPrecision; text-rendering:geometricPrecision; image-rendering:optimizeQuality; fill-rule:evenodd; clip-rule:evenodd"
viewBox="0 0 81.82 82.01"
 xmlns:xlink="http://www.w3.org/1999/xlink">
 <defs>
  <style type="text/css">
   <![CDATA[
    .fil0 {fill:#79B51F}
   ]]>
  </style>
 </defs>
 <g id="Слой_x0020_1">
  <metadata id="CorelCorpID_0Corel-Layer"/>
  <path class="fil0" d="M40.82 0c-21.39,0 -38.93,16.38 -40.82,37.28l33.36 0 0 -11.18c0,-1.51 0.91,-2.87 2.3,-3.44 1.39,-0.58 3,-0.26 4.06,0.81l14.91 14.91c1.46,1.46 1.46,3.81 0,5.27l-14.91 14.91c-1.07,1.07 -2.67,1.39 -4.06,0.81 -1.39,-0.58 -2.3,-1.94 -2.3,-3.44l0 -11.18 -33.36 0c1.89,20.9 19.43,37.28 40.82,37.28 22.64,0 41,-18.36 41,-41 0,-22.65 -18.36,-41 -41,-41l0 0zm0 0z"/>
 </g>
</svg>
