<?xml version="1.0" encoding="UTF-8"?>
<!DOCTYPE svg PUBLIC "-//W3C//DTD SVG 1.1//EN" "http://www.w3.org/Graphics/SVG/1.1/DTD/svg11.dtd">
<!-- Creator: CorelDRAW 2018 (64-Bit) -->
<svg xmlns="http://www.w3.org/2000/svg" xml:space="preserve" width="8.0536mm" height="8.072mm" version="1.1" style="shape-rendering:geometricPrecision; text-rendering:geometricPrecision; image-rendering:optimizeQuality; fill-rule:evenodd; clip-rule:evenodd"
viewBox="0 0 55.31 55.44"
 xmlns:xlink="http://www.w3.org/1999/xlink">
 <defs>
  <style type="text/css">
   <![CDATA[
    .fil0 {fill:white}
   ]]>
  </style>
 </defs>
 <g id="Слой_x0020_1">
  <metadata id="CorelCorpID_0Corel-Layer"/>
  <path class="fil0" d="M27.59 0c-14.46,0 -26.32,11.07 -27.59,25.2l22.55 0 0 -7.56c0,-1.02 0.62,-1.94 1.55,-2.33 0.94,-0.39 2.03,-0.17 2.75,0.55l10.08 10.08c0.98,0.99 0.98,2.58 0,3.56l-10.08 10.08c-0.72,0.72 -1.8,0.94 -2.75,0.55 -0.94,-0.39 -1.55,-1.31 -1.55,-2.33l0 -7.56 -22.55 0c1.28,14.13 13.13,25.2 27.59,25.2 15.31,0 27.72,-12.41 27.72,-27.72 0,-15.31 -12.41,-27.72 -27.72,-27.72l0 0zm0 0z"/>
 </g>
</svg>
