<?xml version="1.0" encoding="UTF-8"?>
<!DOCTYPE svg PUBLIC "-//W3C//DTD SVG 1.1//EN" "http://www.w3.org/Graphics/SVG/1.1/DTD/svg11.dtd">
<!-- Creator: CorelDRAW 2018 (64-Bit) -->
<svg xmlns="http://www.w3.org/2000/svg" xml:space="preserve" width="210mm" height="124.038mm" version="1.1" style="shape-rendering:geometricPrecision; text-rendering:geometricPrecision; image-rendering:optimizeQuality; fill-rule:evenodd; clip-rule:evenodd"
viewBox="0 0 23033.46 13604.85"
 xmlns:xlink="http://www.w3.org/1999/xlink">
 <defs>
  <style type="text/css">
   <![CDATA[
    .fil0 {fill:white}
   ]]>
  </style>
 </defs>
 <g id="Слой_x0020_1">
  <metadata id="CorelCorpID_0Corel-Layer"/>
  <g id="_2259902752720">
   <g>
    <g>
     <path class="fil0" d="M22665.3 1137.08l-754.49 -759.73c-237.45,-237.27 -553.37,-367.98 -891.01,-367.98 -337.45,0 -653.75,130.71 -891.2,367.98l-8606.71 8607.09 -8616.65 -8616.64c-237.08,-237.27 -553.37,-367.79 -890.83,-367.79 -337.45,0 -653.93,130.52 -891.2,367.79l-754.68 755.06c-491.38,491.01 -491.38,1290.82 0,1781.84l10259.15 10296.04c237.08,237.08 552.99,404.12 893.45,404.12l3.94 -0.01c337.64,0 653.56,-167.22 890.64,-404.12l10249.59 -10268.14c237.45,-237.08 367.79,-562.54 368.16,-900 0,-337.64 -130.71,-658.62 -368.16,-895.51z"/>
    </g>
   </g>
   <g>
   </g>
   <g>
   </g>
   <g>
   </g>
   <g>
   </g>
   <g>
   </g>
   <g>
   </g>
   <g>
   </g>
   <g>
   </g>
   <g>
   </g>
   <g>
   </g>
   <g>
   </g>
   <g>
   </g>
   <g>
   </g>
   <g>
   </g>
   <g>
   </g>
  </g>
 </g>
</svg>
