<?xml version="1.0" encoding="UTF-8"?>
<!DOCTYPE svg PUBLIC "-//W3C//DTD SVG 1.1//EN" "http://www.w3.org/Graphics/SVG/1.1/DTD/svg11.dtd">
<!-- Creator: CorelDRAW 2018 (64-Bit) -->
<svg xmlns="http://www.w3.org/2000/svg" xml:space="preserve" width="78.1236mm" height="16.452mm" version="1.1" style="shape-rendering:geometricPrecision; text-rendering:geometricPrecision; image-rendering:optimizeQuality; fill-rule:evenodd; clip-rule:evenodd"
viewBox="0 0 118.59 24.97"
 xmlns:xlink="http://www.w3.org/1999/xlink">
 <defs>
  <style type="text/css">
   <![CDATA[
    .fil5 {fill:none}
    .fil2 {fill:#545454}
    .fil4 {fill:white}
    .fil0 {fill:#2B2A29;fill-rule:nonzero}
    .fil1 {fill:#545454;fill-rule:nonzero}
    .fil3 {fill:url(#id1)}
   ]]>
  </style>
   <clipPath id="id0">
    <path d="M20.92 24.77l-20.92 0 0 -24.77 20.92 0 0 24.77z"/>
   </clipPath>
  <linearGradient id="id1" gradientUnits="userSpaceOnUse" x1="1.87" y1="5.32" x2="20.76" y2="18.84">
   <stop offset="0" style="stop-opacity:1; stop-color:#81BF3F"/>
   <stop offset="1" style="stop-opacity:1; stop-color:#4C9F44"/>
  </linearGradient>
 </defs>
 <g id="Слой_x0020_1">
  <metadata id="CorelCorpID_0Corel-Layer"/>
  <path class="fil0" d="M26.84 15.67l0.97 -0.37c0.3,-0.12 0.51,-0.33 0.62,-0.62l4.17 -10.65 1.27 -2.42 1.27 0 5.15 13.07c0.06,0.14 0.14,0.26 0.26,0.38 0.11,0.11 0.24,0.19 0.36,0.24l0.97 0.37 0 0.64 -6.32 0 0 -0.64 1.83 -0.45 -1.58 -4 -4.65 0 -1.52 3.96 1.78 0.49 0 0.64 -4.57 0 0 -0.64zm8.51 -5.61l-1.38 -3.49 -0.54 -1.42 -1.83 4.91 3.74 0zm8.32 5.61l1.33 -0.39c0.14,-0.04 0.26,-0.12 0.35,-0.23 0.09,-0.11 0.14,-0.24 0.14,-0.39l0 -11.17c0,-0.16 -0.05,-0.3 -0.14,-0.4 -0.09,-0.11 -0.21,-0.19 -0.35,-0.22l-1.33 -0.38 0 -0.64 11.62 0 0 3.76 -0.74 0 -0.85 -2.24c-0.04,-0.11 -0.09,-0.19 -0.15,-0.26 -0.06,-0.07 -0.15,-0.11 -0.28,-0.11l-4.79 0 0 5.21 3.05 0c0.14,0 0.24,-0.03 0.31,-0.09 0.06,-0.06 0.11,-0.14 0.15,-0.24l0.71 -1.73 0.66 0 0 5.29 -0.66 0 -0.71 -1.7c-0.04,-0.11 -0.09,-0.19 -0.15,-0.26 -0.06,-0.07 -0.16,-0.11 -0.3,-0.11l-3.05 0 0 5.79 5.69 0c0.13,0 0.22,-0.03 0.28,-0.1 0.06,-0.07 0.11,-0.16 0.15,-0.27l0.81 -2.53 0.74 0 0 4.07 -12.48 0 0 -0.64zm22.6 0.97c-1.13,0 -2.13,-0.19 -3,-0.56 -0.88,-0.37 -1.62,-0.89 -2.21,-1.56 -0.6,-0.67 -1.05,-1.47 -1.36,-2.4 -0.31,-0.93 -0.46,-1.95 -0.46,-3.05 0,-1.05 0.16,-2.03 0.48,-2.95 0.32,-0.92 0.78,-1.72 1.39,-2.4 0.61,-0.69 1.35,-1.22 2.22,-1.62 0.87,-0.39 1.87,-0.59 2.97,-0.59 1.2,0 2.25,0.2 3.13,0.6 0.88,0.41 1.62,0.95 2.19,1.64 0.58,0.69 1.01,1.49 1.29,2.4 0.28,0.91 0.43,1.89 0.43,2.92 0,0.61 -0.06,1.22 -0.18,1.83 -0.12,0.61 -0.3,1.19 -0.55,1.76 -0.24,0.56 -0.56,1.08 -0.93,1.57 -0.38,0.49 -0.83,0.91 -1.36,1.27 -0.52,0.35 -1.12,0.64 -1.8,0.84 -0.67,0.21 -1.42,0.31 -2.25,0.31zm0.17 -1.12c0.61,0 1.15,-0.16 1.62,-0.47 0.46,-0.32 0.84,-0.75 1.15,-1.3 0.3,-0.55 0.53,-1.2 0.68,-1.94 0.15,-0.74 0.22,-1.55 0.22,-2.41 0,-0.99 -0.08,-1.91 -0.24,-2.73 -0.16,-0.83 -0.4,-1.54 -0.73,-2.14 -0.33,-0.6 -0.74,-1.06 -1.25,-1.39 -0.5,-0.33 -1.1,-0.5 -1.79,-0.5 -0.66,0 -1.22,0.17 -1.68,0.5 -0.46,0.34 -0.84,0.79 -1.13,1.35 -0.3,0.56 -0.51,1.21 -0.64,1.94 -0.13,0.73 -0.2,1.49 -0.2,2.29 0,0.97 0.08,1.88 0.23,2.71 0.15,0.83 0.39,1.55 0.71,2.16 0.32,0.6 0.74,1.08 1.24,1.42 0.5,0.34 1.1,0.52 1.8,0.52zm9.9 0.15l1.33 -0.39c0.15,-0.04 0.28,-0.12 0.36,-0.23 0.09,-0.11 0.13,-0.24 0.13,-0.39l0 -11.17c0,-0.16 -0.05,-0.3 -0.14,-0.41 -0.09,-0.11 -0.21,-0.19 -0.35,-0.22l-1.33 -0.38 0 -0.64 6.71 0 0 0.64 -1.4 0.38c-0.15,0.04 -0.27,0.12 -0.36,0.23 -0.09,0.11 -0.14,0.24 -0.14,0.4l0 11.66 5.04 0c0.07,0 0.13,-0.02 0.18,-0.06 0.05,-0.04 0.09,-0.08 0.13,-0.14 0.04,-0.06 0.07,-0.11 0.09,-0.18 0.02,-0.06 0.04,-0.12 0.06,-0.18l0.9 -2.77 0.71 0 0 4.5 -11.92 0 0 -0.64zm20.96 0.97c-0.94,0 -1.77,-0.12 -2.48,-0.35 -0.71,-0.24 -1.31,-0.55 -1.79,-0.95 -0.48,-0.4 -0.84,-0.85 -1.09,-1.36 -0.24,-0.51 -0.37,-1.04 -0.37,-1.59l0 -8.91c0,-0.16 -0.05,-0.3 -0.15,-0.41 -0.1,-0.11 -0.22,-0.19 -0.36,-0.22l-1.34 -0.38 0 -0.64 6.65 0 0 0.64 -1.33 0.38c-0.14,0.04 -0.26,0.12 -0.35,0.23 -0.09,0.11 -0.14,0.24 -0.14,0.4l0 7.94c0,0.24 0.02,0.49 0.06,0.76 0.04,0.28 0.1,0.55 0.19,0.82 0.09,0.28 0.22,0.54 0.38,0.78 0.16,0.25 0.37,0.46 0.62,0.65 0.25,0.19 0.56,0.34 0.91,0.46 0.36,0.12 0.78,0.17 1.26,0.17 0.48,0 0.91,-0.06 1.28,-0.17 0.37,-0.11 0.69,-0.27 0.96,-0.46 0.27,-0.19 0.5,-0.41 0.68,-0.67 0.19,-0.25 0.33,-0.51 0.44,-0.78 0.11,-0.27 0.19,-0.54 0.23,-0.81 0.04,-0.27 0.07,-0.52 0.07,-0.75l0 -7.88c0,-0.16 -0.05,-0.3 -0.15,-0.4 -0.1,-0.1 -0.21,-0.18 -0.34,-0.22l-1.34 -0.45 0 -0.64 4.98 0 0 0.64 -1.34 0.45c-0.13,0.04 -0.25,0.12 -0.35,0.23 -0.1,0.11 -0.15,0.24 -0.15,0.39l0 8.41c0,0.57 -0.09,1.08 -0.26,1.53 -0.17,0.45 -0.41,0.85 -0.7,1.2 -0.3,0.34 -0.63,0.64 -1.02,0.89 -0.39,0.24 -0.79,0.45 -1.21,0.6 -0.42,0.16 -0.84,0.27 -1.26,0.35 -0.43,0.07 -0.82,0.11 -1.19,0.11zm15.36 0c-0.42,0 -0.84,-0.02 -1.25,-0.07 -0.41,-0.05 -0.82,-0.11 -1.21,-0.2 -0.4,-0.09 -0.79,-0.18 -1.17,-0.29 -0.38,-0.11 -0.76,-0.22 -1.13,-0.34l-0.25 -4.11 0.71 0 0.93 2.1c0.02,0.04 0.05,0.09 0.09,0.14 0.04,0.06 0.08,0.11 0.13,0.16 0.05,0.06 0.09,0.1 0.14,0.14 0.04,0.04 0.08,0.07 0.12,0.1 0.25,0.17 0.54,0.32 0.85,0.45 0.31,0.13 0.63,0.24 0.94,0.33 0.32,0.09 0.61,0.16 0.9,0.21 0.28,0.05 0.52,0.07 0.73,0.07 0.4,0 0.76,-0.07 1.07,-0.2 0.32,-0.13 0.58,-0.3 0.8,-0.53 0.22,-0.22 0.39,-0.48 0.51,-0.77 0.12,-0.3 0.18,-0.61 0.18,-0.94 0,-0.28 -0.04,-0.52 -0.11,-0.74 -0.07,-0.22 -0.19,-0.42 -0.34,-0.61 -0.15,-0.18 -0.35,-0.35 -0.57,-0.49 -0.23,-0.15 -0.5,-0.28 -0.82,-0.41 -0.27,-0.11 -0.53,-0.2 -0.79,-0.27 -0.26,-0.08 -0.53,-0.15 -0.79,-0.23 -0.26,-0.07 -0.52,-0.15 -0.78,-0.23 -0.26,-0.08 -0.52,-0.17 -0.78,-0.28 -0.43,-0.17 -0.81,-0.39 -1.13,-0.66 -0.33,-0.26 -0.61,-0.56 -0.83,-0.9 -0.22,-0.33 -0.39,-0.69 -0.5,-1.08 -0.11,-0.39 -0.17,-0.79 -0.17,-1.21 0,-0.4 0.06,-0.78 0.19,-1.15 0.12,-0.37 0.3,-0.71 0.52,-1.02 0.22,-0.32 0.49,-0.6 0.8,-0.87 0.31,-0.26 0.66,-0.48 1.04,-0.67 0.39,-0.18 0.8,-0.32 1.25,-0.42 0.45,-0.1 0.91,-0.15 1.39,-0.15 0.43,0 0.85,0.02 1.26,0.05 0.42,0.04 0.82,0.09 1.2,0.15 0.39,0.06 0.75,0.13 1.1,0.22 0.35,0.09 0.67,0.18 0.96,0.28l0 3.77 -0.71 0 -0.83 -1.94c-0.04,-0.1 -0.11,-0.19 -0.2,-0.28 -0.09,-0.09 -0.17,-0.16 -0.25,-0.21 -0.17,-0.13 -0.37,-0.24 -0.61,-0.33 -0.24,-0.09 -0.49,-0.17 -0.74,-0.22 -0.26,-0.06 -0.5,-0.1 -0.75,-0.13 -0.24,-0.03 -0.44,-0.04 -0.6,-0.04 -0.35,0 -0.67,0.06 -0.95,0.17 -0.28,0.11 -0.52,0.26 -0.72,0.45 -0.2,0.19 -0.35,0.41 -0.45,0.65 -0.1,0.24 -0.16,0.48 -0.16,0.74 0,0.28 0.03,0.53 0.09,0.77 0.06,0.24 0.17,0.46 0.32,0.65 0.15,0.2 0.34,0.38 0.58,0.54 0.23,0.16 0.52,0.3 0.87,0.43 0.25,0.09 0.5,0.17 0.75,0.25 0.25,0.07 0.5,0.15 0.75,0.22 0.25,0.07 0.51,0.15 0.77,0.24 0.26,0.09 0.54,0.19 0.82,0.31 0.34,0.14 0.68,0.32 1.01,0.55 0.33,0.22 0.63,0.5 0.89,0.82 0.26,0.32 0.47,0.69 0.63,1.1 0.16,0.42 0.24,0.88 0.24,1.39 0,0.55 -0.11,1.1 -0.34,1.65 -0.22,0.54 -0.58,1.03 -1.06,1.46 -0.48,0.43 -1.1,0.78 -1.84,1.04 -0.75,0.27 -1.65,0.4 -2.69,0.4z"/>
  <path class="fil1" d="M43.85 21.93c0.3,0 0.54,0.09 0.72,0.27 0.18,0.18 0.27,0.42 0.27,0.71 0,0.3 -0.09,0.53 -0.27,0.71 -0.18,0.18 -0.42,0.27 -0.72,0.27l-1.14 0 0 -1.39 -1.36 0 0 1.39 -0.44 0 0 -2.99 0.44 0 0 1.16 1.36 0 0 -1.16 0.45 0 0 1.02 0.69 0zm-0.06 1.54c0.18,0 0.33,-0.05 0.43,-0.15 0.1,-0.1 0.16,-0.23 0.16,-0.4 0,-0.17 -0.05,-0.31 -0.16,-0.41 -0.1,-0.1 -0.25,-0.15 -0.43,-0.15l-0.63 0 0 1.11 0.63 0zm4.63 -1.05c0,0.04 -0,0.1 -0.01,0.17l-2.45 0c0.04,0.28 0.15,0.5 0.33,0.67 0.18,0.17 0.41,0.25 0.68,0.25 0.2,0 0.37,-0.05 0.53,-0.14 0.15,-0.09 0.28,-0.22 0.37,-0.39l0.47 0c-0.12,0.31 -0.3,0.55 -0.54,0.72 -0.24,0.17 -0.52,0.26 -0.83,0.26 -0.41,0 -0.76,-0.15 -1.04,-0.45 -0.28,-0.3 -0.42,-0.67 -0.42,-1.12 0,-0.45 0.14,-0.82 0.42,-1.11 0.28,-0.3 0.63,-0.45 1.04,-0.45 0.43,0 0.78,0.15 1.05,0.45 0.27,0.3 0.4,0.68 0.4,1.12zm-1.45 -1.12c-0.17,0 -0.33,0.04 -0.47,0.11 -0.14,0.07 -0.26,0.17 -0.35,0.3 -0.09,0.13 -0.15,0.28 -0.19,0.45l1.99 0c-0.03,-0.17 -0.09,-0.33 -0.19,-0.46 -0.09,-0.13 -0.21,-0.23 -0.35,-0.3 -0.14,-0.07 -0.29,-0.1 -0.46,-0.1zm4.19 -0.38l0 0.42 -1.34 0 0 2.57 -0.44 0 0 -2.99 1.79 0zm2.92 0l0.48 0 -1.37 3.11c-0.11,0.24 -0.21,0.43 -0.31,0.57 -0.1,0.13 -0.22,0.23 -0.35,0.29 -0.13,0.06 -0.28,0.09 -0.47,0.09l-0.27 0 0 -0.43 0.23 0c0.19,0 0.33,-0.04 0.43,-0.12 0.1,-0.08 0.2,-0.25 0.32,-0.5l0.1 -0.23 -1.28 -2.79 0.49 0 1.02 2.27 0.96 -2.27zm1.35 -0.52l0 -0.54 0.49 0 0 0.54 -0.49 0zm-0.73 4.58l0 -0.43 0.17 0c0.18,0 0.33,-0.05 0.43,-0.16 0.1,-0.1 0.15,-0.25 0.15,-0.44l0 -3.03 0.45 0 0 3.06c0,0.3 -0.09,0.54 -0.26,0.72 -0.18,0.18 -0.41,0.27 -0.7,0.27l-0.23 0zm5.07 -2.55c0,0.04 -0,0.1 -0.01,0.17l-2.45 0c0.04,0.28 0.15,0.5 0.33,0.67 0.18,0.17 0.41,0.25 0.68,0.25 0.2,0 0.37,-0.05 0.53,-0.14 0.15,-0.09 0.28,-0.22 0.37,-0.39l0.47 0c-0.12,0.31 -0.3,0.55 -0.54,0.72 -0.24,0.17 -0.52,0.26 -0.83,0.26 -0.41,0 -0.76,-0.15 -1.04,-0.45 -0.28,-0.3 -0.42,-0.67 -0.42,-1.12 0,-0.45 0.14,-0.82 0.42,-1.11 0.28,-0.3 0.63,-0.45 1.04,-0.45 0.43,0 0.78,0.15 1.05,0.45 0.27,0.3 0.4,0.68 0.4,1.12zm-1.45 -1.12c-0.17,0 -0.33,0.04 -0.47,0.11 -0.14,0.07 -0.26,0.17 -0.35,0.3 -0.09,0.13 -0.15,0.28 -0.19,0.45l1.99 0c-0.03,-0.17 -0.09,-0.33 -0.19,-0.46 -0.09,-0.13 -0.21,-0.23 -0.35,-0.3 -0.14,-0.07 -0.29,-0.1 -0.46,-0.1zm5.95 2.61l-0.44 0 -0.41 -2.22 -1.02 2.16 -0.1 0 -1.01 -2.16 -0.41 2.22 -0.44 0 0.55 -2.99 0.38 0 0.98 2.09 0.98 -2.09 0.38 0 0.55 2.99zm2.21 0.07c-0.28,0 -0.54,-0.07 -0.78,-0.2 -0.23,-0.13 -0.42,-0.32 -0.55,-0.56 -0.13,-0.24 -0.2,-0.51 -0.2,-0.8 0,-0.45 0.14,-0.82 0.43,-1.12 0.29,-0.3 0.65,-0.44 1.09,-0.44 0.29,0 0.55,0.07 0.78,0.2 0.23,0.13 0.41,0.32 0.55,0.56 0.13,0.24 0.2,0.51 0.2,0.8 0,0.45 -0.15,0.82 -0.44,1.12 -0.29,0.3 -0.65,0.45 -1.09,0.45zm-0.76 -0.77c0.2,0.21 0.45,0.31 0.76,0.31 0.31,0 0.56,-0.1 0.76,-0.31 0.2,-0.21 0.3,-0.47 0.3,-0.8 0,-0.32 -0.1,-0.59 -0.3,-0.8 -0.2,-0.21 -0.45,-0.31 -0.76,-0.31 -0.31,0 -0.56,0.1 -0.76,0.31 -0.2,0.21 -0.3,0.47 -0.3,0.8 0,0.32 0.1,0.59 0.3,0.8zm6.49 -0.85c0.15,0.06 0.26,0.15 0.35,0.28 0.09,0.13 0.13,0.28 0.13,0.44 0,0.24 -0.08,0.44 -0.25,0.6 -0.17,0.16 -0.38,0.24 -0.63,0.24l-1.44 0 0 -2.99 1.42 0c0.24,0 0.43,0.07 0.58,0.21 0.15,0.14 0.22,0.32 0.22,0.55 0,0.1 -0.02,0.19 -0.05,0.28 -0.03,0.09 -0.08,0.17 -0.13,0.24 -0.06,0.07 -0.12,0.12 -0.2,0.16zm-0.06 -0.6c0,-0.12 -0.04,-0.22 -0.12,-0.29 -0.08,-0.07 -0.18,-0.11 -0.3,-0.11l-0.92 0 0 0.79 0.92 0c0.13,0 0.23,-0.04 0.31,-0.11 0.08,-0.07 0.11,-0.17 0.11,-0.29zm-0.39 1.71c0.09,0 0.17,-0.02 0.24,-0.06 0.07,-0.04 0.13,-0.09 0.17,-0.16 0.04,-0.07 0.06,-0.14 0.06,-0.22 0,-0.08 -0.02,-0.16 -0.06,-0.23 -0.04,-0.07 -0.09,-0.12 -0.17,-0.16 -0.07,-0.04 -0.15,-0.06 -0.25,-0.06l-0.94 0 0 0.88 0.95 0zm4.39 -2.55l0.36 0 0 2.99 -0.38 0 -0.05 -0.45c-0.13,0.17 -0.3,0.29 -0.49,0.39 -0.19,0.09 -0.4,0.14 -0.64,0.14 -0.42,0 -0.77,-0.15 -1.06,-0.45 -0.28,-0.3 -0.43,-0.67 -0.43,-1.12 0,-0.45 0.14,-0.82 0.43,-1.12 0.28,-0.3 0.64,-0.45 1.06,-0.45 0.23,0 0.45,0.05 0.64,0.14 0.19,0.09 0.36,0.22 0.49,0.39l0.06 -0.46zm-1.91 2.29c0.2,0.21 0.45,0.32 0.76,0.32 0.3,0 0.56,-0.11 0.75,-0.32 0.2,-0.21 0.3,-0.47 0.3,-0.79 0,-0.32 -0.1,-0.58 -0.3,-0.79 -0.2,-0.21 -0.45,-0.32 -0.75,-0.32 -0.3,0 -0.56,0.11 -0.76,0.32 -0.2,0.21 -0.3,0.48 -0.3,0.79 0,0.31 0.1,0.58 0.3,0.79zm6.59 -2.29l0.45 0 0 2.99 -3.57 0 0 -2.99 0.44 0 0 2.55 1.13 0 0 -2.55 0.44 0 0 2.55 1.12 0 0 -2.55zm4.32 1.51c0,0.04 -0,0.1 -0.01,0.17l-2.45 0c0.04,0.28 0.15,0.5 0.33,0.67 0.18,0.17 0.41,0.25 0.68,0.25 0.2,0 0.37,-0.05 0.53,-0.14 0.15,-0.09 0.28,-0.22 0.37,-0.39l0.47 0c-0.12,0.31 -0.3,0.55 -0.54,0.72 -0.24,0.17 -0.52,0.26 -0.83,0.26 -0.41,0 -0.76,-0.15 -1.04,-0.45 -0.28,-0.3 -0.42,-0.67 -0.42,-1.12 0,-0.45 0.14,-0.82 0.42,-1.11 0.28,-0.3 0.63,-0.45 1.04,-0.45 0.43,0 0.78,0.15 1.05,0.45 0.27,0.3 0.4,0.68 0.4,1.12zm-1.45 -1.12c-0.17,0 -0.33,0.04 -0.47,0.11 -0.14,0.07 -0.26,0.17 -0.35,0.3 -0.09,0.13 -0.15,0.28 -0.19,0.45l1.99 0c-0.03,-0.17 -0.09,-0.33 -0.19,-0.46 -0.09,-0.13 -0.21,-0.23 -0.35,-0.3 -0.14,-0.07 -0.29,-0.1 -0.46,-0.1zm5.89 -0.38l0.48 0 -1.37 3.11c-0.11,0.24 -0.21,0.43 -0.31,0.57 -0.1,0.13 -0.22,0.23 -0.35,0.29 -0.13,0.06 -0.28,0.09 -0.47,0.09l-0.27 0 0 -0.43 0.23 0c0.19,0 0.33,-0.04 0.43,-0.12 0.1,-0.08 0.2,-0.25 0.32,-0.5l0.1 -0.23 -1.28 -2.79 0.49 0 1.02 2.27 0.96 -2.27zm2.46 3.06c-0.28,0 -0.53,-0.07 -0.76,-0.2 -0.23,-0.13 -0.41,-0.32 -0.54,-0.56 -0.13,-0.24 -0.19,-0.51 -0.19,-0.8 0,-0.45 0.14,-0.82 0.43,-1.12 0.29,-0.3 0.64,-0.45 1.07,-0.45 0.34,0 0.64,0.1 0.89,0.29 0.25,0.2 0.42,0.46 0.51,0.78l-0.45 0c-0.09,-0.19 -0.21,-0.34 -0.38,-0.45 -0.17,-0.11 -0.36,-0.17 -0.57,-0.17 -0.29,0 -0.54,0.11 -0.74,0.32 -0.2,0.21 -0.3,0.48 -0.3,0.79 0,0.21 0.04,0.39 0.13,0.56 0.09,0.17 0.21,0.3 0.37,0.4 0.16,0.1 0.33,0.15 0.53,0.15 0.21,0 0.4,-0.06 0.56,-0.17 0.16,-0.11 0.29,-0.27 0.38,-0.47l0.46 0c-0.09,0.33 -0.26,0.6 -0.51,0.8 -0.25,0.2 -0.55,0.3 -0.89,0.3zm4.99 -1.55c0,0.04 -0,0.1 -0.01,0.17l-2.45 0c0.04,0.28 0.15,0.5 0.33,0.67 0.18,0.17 0.41,0.25 0.68,0.25 0.2,0 0.37,-0.05 0.53,-0.14 0.15,-0.09 0.28,-0.22 0.37,-0.39l0.47 0c-0.12,0.31 -0.3,0.55 -0.54,0.72 -0.24,0.17 -0.52,0.26 -0.83,0.26 -0.41,0 -0.76,-0.15 -1.04,-0.45 -0.28,-0.3 -0.42,-0.67 -0.42,-1.12 0,-0.45 0.14,-0.82 0.42,-1.11 0.28,-0.3 0.63,-0.45 1.04,-0.45 0.43,0 0.78,0.15 1.05,0.45 0.27,0.3 0.4,0.68 0.4,1.12zm-1.45 -1.12c-0.17,0 -0.33,0.04 -0.47,0.11 -0.14,0.07 -0.26,0.17 -0.35,0.3 -0.09,0.13 -0.15,0.28 -0.19,0.45l1.99 0c-0.03,-0.17 -0.09,-0.33 -0.19,-0.46 -0.09,-0.13 -0.21,-0.23 -0.35,-0.3 -0.14,-0.07 -0.29,-0.1 -0.46,-0.1zm4.25 1.06c0.15,0.06 0.26,0.15 0.35,0.28 0.09,0.13 0.13,0.28 0.13,0.44 0,0.24 -0.08,0.44 -0.25,0.6 -0.17,0.16 -0.38,0.24 -0.63,0.24l-1.44 0 0 -2.99 1.42 0c0.24,0 0.43,0.07 0.58,0.21 0.15,0.14 0.22,0.32 0.22,0.55 0,0.1 -0.02,0.19 -0.05,0.28 -0.03,0.09 -0.08,0.17 -0.13,0.24 -0.06,0.07 -0.12,0.12 -0.2,0.16zm-0.06 -0.6c0,-0.12 -0.04,-0.22 -0.12,-0.29 -0.08,-0.07 -0.18,-0.11 -0.3,-0.11l-0.92 0 0 0.79 0.92 0c0.13,0 0.23,-0.04 0.31,-0.11 0.08,-0.07 0.11,-0.17 0.11,-0.29zm-0.39 1.71c0.09,0 0.17,-0.02 0.24,-0.06 0.07,-0.04 0.13,-0.09 0.17,-0.16 0.04,-0.07 0.06,-0.14 0.06,-0.22 0,-0.08 -0.02,-0.16 -0.06,-0.23 -0.04,-0.07 -0.09,-0.12 -0.17,-0.16 -0.07,-0.04 -0.15,-0.06 -0.25,-0.06l-0.94 0 0 0.88 0.95 0zm4.63 -1.04c0,0.04 -0,0.1 -0.01,0.17l-2.45 0c0.04,0.28 0.15,0.5 0.33,0.67 0.18,0.17 0.41,0.25 0.68,0.25 0.2,0 0.37,-0.05 0.53,-0.14 0.15,-0.09 0.28,-0.22 0.37,-0.39l0.47 0c-0.12,0.31 -0.3,0.55 -0.54,0.72 -0.24,0.17 -0.52,0.26 -0.83,0.26 -0.41,0 -0.76,-0.15 -1.04,-0.45 -0.28,-0.3 -0.42,-0.67 -0.42,-1.12 0,-0.45 0.14,-0.82 0.42,-1.11 0.28,-0.3 0.63,-0.45 1.04,-0.45 0.43,0 0.78,0.15 1.05,0.45 0.27,0.3 0.4,0.68 0.4,1.12zm-1.45 -1.12c-0.17,0 -0.33,0.04 -0.47,0.11 -0.14,0.07 -0.26,0.17 -0.35,0.3 -0.09,0.13 -0.15,0.28 -0.19,0.45l1.99 0c-0.03,-0.17 -0.09,-0.33 -0.19,-0.46 -0.09,-0.13 -0.21,-0.23 -0.35,-0.3 -0.14,-0.07 -0.29,-0.1 -0.46,-0.1z"/>
  <polygon class="fil2" points="37.99,22.19 37.99,22.63 27.7,22.44 "/>
  <polygon class="fil2" points="106.73,22.1 106.73,22.55 117.02,22.36 "/>
  <polygon class="fil3" points="20.92,24.77 -0,24.77 -0,0 20.92,0 "/>
  <g style="clip-path:url(#id0)">
   <g id="_2458092516704">
    <path id="1" class="fil4" d="M-6.64 15.61c11.62,-9.15 26.56,0.94 15.41,7.03 5,-8.43 -8.53,-11.48 -15.41,-7.03zm3.84 -6.95c15.4,-12.13 35.21,1.25 20.42,9.31 6.62,-11.17 -11.3,-15.22 -20.42,-9.31zm-1.92 3.48c13.51,-10.64 30.89,1.09 17.91,8.17 5.81,-9.8 -9.91,-13.35 -17.91,-8.17z"/>
   </g>
  </g>
  <polygon class="fil5" points="20.92,24.77 -0,24.77 -0,0 20.92,0 "/>
 </g>
</svg>
