<?xml version="1.0" encoding="UTF-8"?>
<!DOCTYPE svg PUBLIC "-//W3C//DTD SVG 1.1//EN" "http://www.w3.org/Graphics/SVG/1.1/DTD/svg11.dtd">
<!-- Creator: CorelDRAW 2018 (64-Bit) -->
<svg xmlns="http://www.w3.org/2000/svg" xml:space="preserve" width="21.2532mm" height="22.0136mm" version="1.1" style="shape-rendering:geometricPrecision; text-rendering:geometricPrecision; image-rendering:optimizeQuality; fill-rule:evenodd; clip-rule:evenodd"
viewBox="0 0 97854.96 101356.03"
 xmlns:xlink="http://www.w3.org/1999/xlink">
 <defs>
  <style type="text/css">
   <![CDATA[
    .fil0 {fill:#E6E6E6}
   ]]>
  </style>
 </defs>
 <g id="Слой_x0020_1">
  <metadata id="CorelCorpID_0Corel-Layer"/>
  <g id="_2259902756048">
   <path class="fil0" d="M96366.87 92319.28l-24122.57 -25089c6202.38,-7373.24 9600.77,-16649.87 9600.77,-26307.74 0,-22564.49 -18358.51,-40922.54 -40922.54,-40922.54 -22564.49,0 -40922.54,18358.05 -40922.54,40922.54 0,22564.03 18358.05,40922.54 40922.54,40922.54 8470.89,0 16543.52,-2555.36 23444.82,-7405.47l24306.28 25279.61c1015.7,1054.83 2382.24,1636.81 3846.85,1636.81 1385.88,0 2700.85,-528.57 3699.05,-1489.01 2120.72,-2041.06 2188.4,-5425.18 147.34,-7547.74zm-55444.33 -81643.87c16678.42,0 30247.13,13568.71 30247.13,30247.13 0,16678.42 -13568.71,30247.13 -30247.13,30247.13 -16678.42,0 -30247.13,-13568.71 -30247.13,-30247.13 0,-16678.42 13568.71,-30247.13 30247.13,-30247.13z"/>
   <g>
   </g>
   <g>
   </g>
   <g>
   </g>
   <g>
   </g>
   <g>
   </g>
   <g>
   </g>
   <g>
   </g>
   <g>
   </g>
   <g>
   </g>
   <g>
   </g>
   <g>
   </g>
   <g>
   </g>
   <g>
   </g>
   <g>
   </g>
   <g>
   </g>
  </g>
 </g>
</svg>
