<svg xmlns="http://www.w3.org/2000/svg" width="30.439" height="30.508" viewBox="0 0 66 66.15" shape-rendering="geometricPrecision" text-rendering="geometricPrecision" image-rendering="optimizeQuality" fill-rule="evenodd" clip-rule="evenodd"><path d="M32.93 0C15.68 0 1.53 13.21 0 30.07h26.91v-9.02a3.014 3.014 0 015.14-2.13l12.03 12.03a2.994 2.994 0 010 4.25L32.05 47.23a3 3 0 01-3.28.65 3.02 3.02 0 01-1.86-2.78v-9.02H0c1.52 16.86 15.67 30.07 32.93 30.07 18.27 0 33.08-14.81 33.08-33.08C66.01 14.8 51.2-.01 32.93-.01zm0 0z" fill="#e6e6e6"/></svg>