<svg xmlns="http://www.w3.org/2000/svg" width="30.439" height="30.508" viewBox="0 0 55.31 55.44" shape-rendering="geometricPrecision" text-rendering="geometricPrecision" image-rendering="optimizeQuality" fill-rule="evenodd" clip-rule="evenodd"><path d="M27.59 0C13.13 0 1.27 11.07 0 25.2h22.55v-7.56c0-1.02.62-1.94 1.55-2.33.94-.39 2.03-.17 2.75.55l10.08 10.08c.98.99.98 2.58 0 3.56L26.85 39.58c-.72.72-1.8.94-2.75.55a2.52 2.52 0 01-1.55-2.33v-7.56H0c1.28 14.13 13.13 25.2 27.59 25.2 15.31 0 27.72-12.41 27.72-27.72C55.31 12.41 42.9 0 27.59 0zm0 0z" fill="#fff"/></svg>