<svg xmlns="http://www.w3.org/2000/svg" width="30.439" height="30.508" viewBox="0 0 81.82 82.01" shape-rendering="geometricPrecision" text-rendering="geometricPrecision" image-rendering="optimizeQuality" fill-rule="evenodd" clip-rule="evenodd"><path d="M40.82 0C19.43 0 1.89 16.38 0 37.28h33.36V26.1c0-1.51.91-2.87 2.3-3.44 1.39-.58 3-.26 4.06.81l14.91 14.91a3.718 3.718 0 010 5.27L39.72 58.56a3.714 3.714 0 01-4.06.81 3.737 3.737 0 01-2.3-3.44V44.75H0c1.89 20.9 19.43 37.28 40.82 37.28 22.64 0 41-18.36 41-41 0-22.65-18.36-41-41-41zm0 0z" fill="#79b51f"/></svg>