<svg xmlns="http://www.w3.org/2000/svg" width="210mm" height="468.805" viewBox="0 0 23033.46 13604.85" shape-rendering="geometricPrecision" text-rendering="geometricPrecision" image-rendering="optimizeQuality" fill-rule="evenodd" clip-rule="evenodd"><path d="M22665.3 1137.08l-754.49-759.73c-237.45-237.27-553.37-367.98-891.01-367.98-337.45 0-653.75 130.71-891.2 367.98l-8606.71 8607.09L2905.24 367.8C2668.16 130.53 2351.87.01 2014.41.01c-337.45 0-653.93 130.52-891.2 367.79l-754.68 755.06c-491.38 491.01-491.38 1290.82 0 1781.84l10259.15 10296.04c237.08 237.08 552.99 404.12 893.45 404.12l3.94-.01c337.64 0 653.56-167.22 890.64-404.12L22665.3 2932.59c237.45-237.08 367.79-562.54 368.16-900 0-337.64-130.71-658.62-368.16-895.51z" fill="#fff"/></svg>