<svg xmlns="http://www.w3.org/2000/svg" width="295.27" height="62.181" viewBox="0 0 118.59 24.97" shape-rendering="geometricPrecision" text-rendering="geometricPrecision" image-rendering="optimizeQuality" fill-rule="evenodd" clip-rule="evenodd"><defs><linearGradient id="a" gradientUnits="userSpaceOnUse" x1="1.87" y1="5.32" x2="20.76" y2="18.84"><stop offset="0" stop-color="#81bf3f"/><stop offset="1" stop-color="#4c9f44"/></linearGradient><clipPath id="b"><path d="M20.92 24.77H0V0h20.92v24.77z"/></clipPath></defs><path d="M26.84 15.67l.97-.37c.3-.12.51-.33.62-.62L32.6 4.03l1.27-2.42h1.27l5.15 13.07a1.173 1.173 0 00.62.62l.97.37v.64h-6.32v-.64l1.83-.45-1.58-4h-4.65l-1.52 3.96 1.78.49v.64h-4.57v-.64zm8.51-5.61l-1.38-3.49-.54-1.42-1.83 4.91h3.74zm8.32 5.61l1.33-.39c.14-.04.26-.12.35-.23.09-.11.14-.24.14-.39V3.49c0-.16-.05-.3-.14-.4a.622.622 0 00-.35-.22l-1.33-.38v-.64h11.62v3.76h-.74l-.85-2.24a.809.809 0 00-.15-.26c-.06-.07-.15-.11-.28-.11h-4.79v5.21h3.05c.14 0 .24-.03.31-.09.06-.06.11-.14.15-.24l.71-1.73h.66v5.29h-.66l-.71-1.7a.809.809 0 00-.15-.26c-.06-.07-.16-.11-.3-.11h-3.05v5.79h5.69c.13 0 .22-.03.28-.1.06-.07.11-.16.15-.27l.81-2.53h.74v4.07H43.68v-.64zm22.6.97c-1.13 0-2.13-.19-3-.56-.88-.37-1.62-.89-2.21-1.56-.6-.67-1.05-1.47-1.36-2.4-.31-.93-.46-1.95-.46-3.05 0-1.05.16-2.03.48-2.95.32-.92.78-1.72 1.39-2.4.61-.69 1.35-1.22 2.22-1.62.87-.39 1.87-.59 2.97-.59 1.2 0 2.25.2 3.13.6.88.41 1.62.95 2.19 1.64.58.69 1.01 1.49 1.29 2.4.28.91.43 1.89.43 2.92 0 .61-.06 1.22-.18 1.83-.12.61-.3 1.19-.55 1.76-.24.56-.56 1.08-.93 1.57-.38.49-.83.91-1.36 1.27-.52.35-1.12.64-1.8.84-.67.21-1.42.31-2.25.31zm.17-1.12c.61 0 1.15-.16 1.62-.47.46-.32.84-.75 1.15-1.3.3-.55.53-1.2.68-1.94.15-.74.22-1.55.22-2.41 0-.99-.08-1.91-.24-2.73-.16-.83-.4-1.54-.73-2.14-.33-.6-.74-1.06-1.25-1.39-.5-.33-1.1-.5-1.79-.5-.66 0-1.22.17-1.68.5-.46.34-.84.79-1.13 1.35-.3.56-.51 1.21-.64 1.94s-.2 1.49-.2 2.29c0 .97.08 1.88.23 2.71.15.83.39 1.55.71 2.16.32.6.74 1.08 1.24 1.42.5.34 1.1.52 1.8.52zm9.9.15l1.33-.39c.15-.04.28-.12.36-.23.09-.11.13-.24.13-.39V3.49a.636.636 0 00-.49-.63l-1.33-.38v-.64h6.71v.64l-1.4.38c-.15.04-.27.12-.36.23-.09.11-.14.24-.14.4v11.66h5.04c.07 0 .13-.02.18-.06.05-.04.09-.08.13-.14.04-.06.07-.11.09-.18l.06-.18.9-2.77h.71v4.5H76.34v-.64zm20.96.97c-.94 0-1.77-.12-2.48-.35-.71-.24-1.31-.55-1.79-.95-.48-.4-.84-.85-1.09-1.36-.24-.51-.37-1.04-.37-1.59V3.48c0-.16-.05-.3-.15-.41a.682.682 0 00-.36-.22l-1.34-.38v-.64h6.65v.64l-1.33.38c-.14.04-.26.12-.35.23-.09.11-.14.24-.14.4v7.94c0 .24.02.49.06.76.04.28.1.55.19.82.09.28.22.54.38.78.16.25.37.46.62.65s.56.34.91.46c.36.12.78.17 1.26.17s.91-.06 1.28-.17c.37-.11.69-.27.96-.46s.5-.41.68-.67c.19-.25.33-.51.44-.78.11-.27.19-.54.23-.81.04-.27.07-.52.07-.75V3.54c0-.16-.05-.3-.15-.4-.1-.1-.21-.18-.34-.22l-1.34-.45v-.64h4.98v.64l-1.34.45c-.13.04-.25.12-.35.23a.56.56 0 00-.15.39v8.41c0 .57-.09 1.08-.26 1.53-.17.45-.41.85-.7 1.2-.3.34-.63.64-1.02.89-.39.24-.79.45-1.21.6-.42.16-.84.27-1.26.35-.43.07-.82.11-1.19.11zm15.36 0c-.42 0-.84-.02-1.25-.07-.41-.05-.82-.11-1.21-.2-.4-.09-.79-.18-1.17-.29-.38-.11-.76-.22-1.13-.34l-.25-4.11h.71l.93 2.1c.02.04.05.09.09.14.04.06.08.11.13.16.05.06.09.1.14.14.04.04.08.07.12.1.25.17.54.32.85.45a8.772 8.772 0 001.84.54c.28.05.52.07.73.07.4 0 .76-.07 1.07-.2.32-.13.58-.3.8-.53.22-.22.39-.48.51-.77.12-.3.18-.61.18-.94 0-.28-.04-.52-.11-.74a1.94 1.94 0 00-.34-.61c-.15-.18-.35-.35-.57-.49-.23-.15-.5-.28-.82-.41-.27-.11-.53-.2-.79-.27-.26-.08-.53-.15-.79-.23-.26-.07-.52-.15-.78-.23-.26-.08-.52-.17-.78-.28-.43-.17-.81-.39-1.13-.66-.33-.26-.61-.56-.83-.9a3.8 3.8 0 01-.5-1.08 4.42 4.42 0 01-.17-1.21c0-.4.06-.78.19-1.15.12-.37.3-.71.52-1.02.22-.32.49-.6.8-.87.31-.26.66-.48 1.04-.67.39-.18.8-.32 1.25-.42.45-.1.91-.15 1.39-.15.43 0 .85.02 1.26.05.42.04.82.09 1.2.15.39.06.75.13 1.1.22.35.09.67.18.96.28v3.77h-.71l-.83-1.94a.856.856 0 00-.2-.28c-.09-.09-.17-.16-.25-.21-.17-.13-.37-.24-.61-.33a4.83 4.83 0 00-.74-.22c-.26-.06-.5-.1-.75-.13-.24-.03-.44-.04-.6-.04-.35 0-.67.06-.95.17a2.2 2.2 0 00-.72.45c-.2.19-.35.41-.45.65-.1.24-.16.48-.16.74 0 .28.03.53.09.77s.17.46.32.65c.15.2.34.38.58.54.23.16.52.3.87.43.25.09.5.17.75.25.25.07.5.15.75.22s.51.15.77.24.54.19.82.31c.34.14.68.32 1.01.55a4.058 4.058 0 011.52 1.92c.16.42.24.88.24 1.39 0 .55-.11 1.1-.34 1.65-.22.54-.58 1.03-1.06 1.46-.48.43-1.1.78-1.84 1.04-.75.27-1.65.4-2.69.4z" fill="#2b2a29" fill-rule="nonzero"/><path d="M43.85 21.93c.3 0 .54.09.72.27.18.18.27.42.27.71 0 .3-.09.53-.27.71-.18.18-.42.27-.72.27h-1.14V22.5h-1.36v1.39h-.44V20.9h.44v1.16h1.36V20.9h.45v1.02h.69zm-.06 1.54c.18 0 .33-.05.43-.15.1-.1.16-.23.16-.4s-.05-.31-.16-.41c-.1-.1-.25-.15-.43-.15h-.63v1.11h.63zm4.63-1.05c0 .04 0 .1-.01.17h-2.45c.04.28.15.5.33.67.18.17.41.25.68.25a.995.995 0 00.9-.53h.47c-.12.31-.3.55-.54.72-.24.17-.52.26-.83.26-.41 0-.76-.15-1.04-.45-.28-.3-.42-.67-.42-1.12 0-.45.14-.82.42-1.11.28-.3.63-.45 1.04-.45.43 0 .78.15 1.05.45.27.3.4.68.4 1.12zm-1.45-1.12c-.17 0-.33.04-.47.11-.14.07-.26.17-.35.3-.09.13-.15.28-.19.45h1.99c-.03-.17-.09-.33-.19-.46a.922.922 0 00-.35-.3c-.14-.07-.29-.1-.46-.1zm4.19-.38v.42h-1.34v2.57h-.44v-2.99h1.79zm2.92 0h.48l-1.37 3.11c-.11.24-.21.43-.31.57-.1.13-.22.23-.35.29-.13.06-.28.09-.47.09h-.27v-.43h.23c.19 0 .33-.04.43-.12.1-.08.2-.25.32-.5l.1-.23-1.28-2.79h.49l1.02 2.27.96-2.27zm1.35-.52v-.54h.49v.54h-.49zm-.73 4.58v-.43h.17c.18 0 .33-.05.43-.16.1-.1.15-.25.15-.44v-3.03h.45v3.06c0 .3-.09.54-.26.72-.18.18-.41.27-.7.27h-.23zm5.07-2.55c0 .04 0 .1-.01.17h-2.45c.04.28.15.5.33.67.18.17.41.25.68.25a.995.995 0 00.9-.53h.47c-.12.31-.3.55-.54.72-.24.17-.52.26-.83.26-.41 0-.76-.15-1.04-.45-.28-.3-.42-.67-.42-1.12 0-.45.14-.82.42-1.11.28-.3.63-.45 1.04-.45.43 0 .78.15 1.05.45.27.3.4.68.4 1.12zm-1.45-1.12c-.17 0-.33.04-.47.11-.14.07-.26.17-.35.3-.09.13-.15.28-.19.45h1.99c-.03-.17-.09-.33-.19-.46a.922.922 0 00-.35-.3c-.14-.07-.29-.1-.46-.1zm5.95 2.61h-.44l-.41-2.22-1.02 2.16h-.1l-1.01-2.16-.41 2.22h-.44l.55-2.99h.38l.98 2.09.98-2.09h.38l.55 2.99zm2.21.07c-.28 0-.54-.07-.78-.2-.23-.13-.42-.32-.55-.56-.13-.24-.2-.51-.2-.8 0-.45.14-.82.43-1.12.29-.3.65-.44 1.09-.44.29 0 .55.07.78.2.23.13.41.32.55.56.13.24.2.51.2.8 0 .45-.15.82-.44 1.12-.29.3-.65.45-1.09.45zm-.76-.77c.2.21.45.31.76.31s.56-.1.76-.31c.2-.21.3-.47.3-.8 0-.32-.1-.59-.3-.8a.995.995 0 00-.76-.31c-.31 0-.56.1-.76.31-.2.21-.3.47-.3.8 0 .32.1.59.3.8zm6.49-.85a.758.758 0 01.48.72c0 .24-.08.44-.25.6-.17.16-.38.24-.63.24h-1.44v-2.99h1.42c.24 0 .43.07.58.21.15.14.22.32.22.55a.868.868 0 01-.18.52c-.06.07-.12.12-.2.16zm-.06-.6a.37.37 0 00-.12-.29.443.443 0 00-.3-.11h-.92v.79h.92c.13 0 .23-.04.31-.11.08-.07.11-.17.11-.29zm-.39 1.71a.475.475 0 00.41-.22c.04-.07.06-.14.06-.22 0-.08-.02-.16-.06-.23a.378.378 0 00-.17-.16.487.487 0 00-.25-.06h-.94v.88h.95zm4.39-2.55h.36v2.99h-.38l-.05-.45c-.13.17-.3.29-.49.39-.19.09-.4.14-.64.14-.42 0-.77-.15-1.06-.45-.28-.3-.43-.67-.43-1.12 0-.45.14-.82.43-1.12.28-.3.64-.45 1.06-.45.23 0 .45.05.64.14.19.09.36.22.49.39l.06-.46zm-1.91 2.29c.2.21.45.32.76.32.3 0 .56-.11.75-.32.2-.21.3-.47.3-.79 0-.32-.1-.58-.3-.79a.997.997 0 00-.75-.32c-.3 0-.56.11-.76.32-.2.21-.3.48-.3.79 0 .31.1.58.3.79zm6.59-2.29h.45v2.99h-3.57v-2.99h.44v2.55h1.13v-2.55h.44v2.55h1.12v-2.55zm4.32 1.51c0 .04 0 .1-.01.17h-2.45c.04.28.15.5.33.67.18.17.41.25.68.25a.995.995 0 00.9-.53h.47c-.12.31-.3.55-.54.72-.24.17-.52.26-.83.26-.41 0-.76-.15-1.04-.45-.28-.3-.42-.67-.42-1.12 0-.45.14-.82.42-1.11.28-.3.63-.45 1.04-.45.43 0 .78.15 1.05.45.27.3.4.68.4 1.12zm-1.45-1.12c-.17 0-.33.04-.47.11-.14.07-.26.17-.35.3-.09.13-.15.28-.19.45h1.99c-.03-.17-.09-.33-.19-.46a.922.922 0 00-.35-.3c-.14-.07-.29-.1-.46-.1zm5.89-.38h.48l-1.37 3.11c-.11.24-.21.43-.31.57-.1.13-.22.23-.35.29-.13.06-.28.09-.47.09h-.27v-.43h.23c.19 0 .33-.04.43-.12.1-.08.2-.25.32-.5l.1-.23-1.28-2.79h.49l1.02 2.27.96-2.27zM92.05 24c-.28 0-.53-.07-.76-.2-.23-.13-.41-.32-.54-.56-.13-.24-.19-.51-.19-.8 0-.45.14-.82.43-1.12.29-.3.64-.45 1.07-.45.34 0 .64.1.89.29.25.2.42.46.51.78h-.45a1.031 1.031 0 00-.95-.62c-.29 0-.54.11-.74.32-.2.21-.3.48-.3.79 0 .21.04.39.13.56a1.019 1.019 0 00.9.55c.21 0 .4-.06.56-.17.16-.11.29-.27.38-.47h.46c-.09.33-.26.6-.51.8-.25.2-.55.3-.89.3zm4.99-1.55c0 .04 0 .1-.01.17h-2.45c.04.28.15.5.33.67.18.17.41.25.68.25a.995.995 0 00.9-.53h.47c-.12.31-.3.55-.54.72-.24.17-.52.26-.83.26-.41 0-.76-.15-1.04-.45-.28-.3-.42-.67-.42-1.12 0-.45.14-.82.42-1.11.28-.3.63-.45 1.04-.45.43 0 .78.15 1.05.45.27.3.4.68.4 1.12zm-1.45-1.12c-.17 0-.33.04-.47.11-.14.07-.26.17-.35.3-.09.13-.15.28-.19.45h1.99c-.03-.17-.09-.33-.19-.46a.922.922 0 00-.35-.3c-.14-.07-.29-.1-.46-.1zm4.25 1.06a.758.758 0 01.48.72c0 .24-.08.44-.25.6-.17.16-.38.24-.63.24H98v-2.99h1.42c.24 0 .43.07.58.21.15.14.22.32.22.55a.868.868 0 01-.18.52c-.06.07-.12.12-.2.16zm-.06-.6a.37.37 0 00-.12-.29.443.443 0 00-.3-.11h-.92v.79h.92c.13 0 .23-.04.31-.11.08-.07.11-.17.11-.29zm-.39 1.71a.475.475 0 00.41-.22c.04-.07.06-.14.06-.22 0-.08-.02-.16-.06-.23a.378.378 0 00-.17-.16.487.487 0 00-.25-.06h-.94v.88h.95zm4.63-1.04c0 .04 0 .1-.01.17h-2.45c.04.28.15.5.33.67.18.17.41.25.68.25a.995.995 0 00.9-.53h.47c-.12.31-.3.55-.54.72-.24.17-.52.26-.83.26-.41 0-.76-.15-1.04-.45-.28-.3-.42-.67-.42-1.12 0-.45.14-.82.42-1.11.28-.3.63-.45 1.04-.45.43 0 .78.15 1.05.45.27.3.4.68.4 1.12zm-1.45-1.12c-.17 0-.33.04-.47.11-.14.07-.26.17-.35.3-.09.13-.15.28-.19.45h1.99c-.03-.17-.09-.33-.19-.46a.922.922 0 00-.35-.3c-.14-.07-.29-.1-.46-.1z" fill="#545454" fill-rule="nonzero"/><path d="M37.99 22.19v.44l-10.29-.19zm68.74-.09v.45l10.29-.19z" fill="#545454"/><path fill="url(#a)" d="M20.92 24.77H0V0h20.92z"/><g clip-path="url(#b)"><path d="M-6.64 15.61c11.62-9.15 26.56.94 15.41 7.03 5-8.43-8.53-11.48-15.41-7.03zm3.84-6.95c15.4-12.13 35.21 1.25 20.42 9.31C24.24 6.8 6.32 2.75-2.8 8.66zm-1.92 3.48C8.79 1.5 26.17 13.23 13.19 20.31 19 10.51 3.28 6.96-4.72 12.14z" fill="#fff"/></g><path fill="none" d="M20.92 24.77H0V0h20.92z"/></svg>