<svg xmlns="http://www.w3.org/2000/svg" width="80.327" height="83.201" viewBox="0 0 97854.96 101356.03" shape-rendering="geometricPrecision" text-rendering="geometricPrecision" image-rendering="optimizeQuality" fill-rule="evenodd" clip-rule="evenodd"><path d="M96366.87 92319.28l-24122.57-25089c6202.38-7373.24 9600.77-16649.87 9600.77-26307.74C81845.07 18358.05 63486.56 0 40922.53 0 18358.04 0-.01 18358.05-.01 40922.54c0 22564.03 18358.05 40922.54 40922.54 40922.54 8470.89 0 16543.52-2555.36 23444.82-7405.47l24306.28 25279.61c1015.7 1054.83 2382.24 1636.81 3846.85 1636.81 1385.88 0 2700.85-528.57 3699.05-1489.01 2120.72-2041.06 2188.4-5425.18 147.34-7547.74zM40922.54 10675.41c16678.42 0 30247.13 13568.71 30247.13 30247.13 0 16678.42-13568.71 30247.13-30247.13 30247.13-16678.42 0-30247.13-13568.71-30247.13-30247.13 0-16678.42 13568.71-30247.13 30247.13-30247.13z" fill="#e6e6e6"/></svg>